<svg xmlns="http://www.w3.org/2000/svg" xmlns:xlink="http://www.w3.org/1999/xlink" width="32" height="32" viewBox="0 0 32 32">
  <defs>
    <clipPath id="clip-path">
      <rect width="13.991" height="13.5" fill="none"/>
    </clipPath>
    <clipPath id="clip-vite">
      <rect width="32" height="32"/>
    </clipPath>
  </defs>
  <g id="vite" clip-path="url(#clip-vite)">
    <rect width="32" height="32" fill="#2fdc1c"/>
    <g id="logo" transform="translate(-185.141 744.001)">
      <path id="Path_1" data-name="Path 1" d="M198.645-736.943c-.089.047-.095.3-.095,4.046,0,2.2-.016,4-.032,4s-1.294-1.263-2.841-2.8-2.831-2.8-2.852-2.815-.779.726-1.684,1.631L189.5-731.24l2.862,2.852c1.568,1.573,2.841,2.857,2.825,2.857s-1.8.005-3.972,0-3.978.021-4.014.042a12.966,12.966,0,0,0-.053,2.357l.016,2.31,4.183.032c3.872.031,4.409.047,4.551.153a.935.935,0,0,0,.21.074,1.836,1.836,0,0,1,.595.279.241.241,0,0,0,.121.068,4.7,4.7,0,0,1,1.252,1.3l.226.384h5.24l.226-.384a4.39,4.39,0,0,1,.626-.773c.473-.463.526-.5.673-.547.063-.021.116-.058.116-.084s.074-.058.158-.079.158-.052.158-.079.089-.058.2-.079a.749.749,0,0,0,.247-.079c.132-.1.679-.121,4.577-.153l4.156-.032.016-2.31a12.965,12.965,0,0,0-.053-2.357c-.037-.021-1.841-.042-4.014-.042s-3.956.005-3.972,0,1.257-1.284,2.825-2.857l2.862-2.852-1.642-1.647c-.9-.9-1.663-1.636-1.689-1.631s-1.3,1.279-2.852,2.815-2.825,2.8-2.841,2.8-.032-1.8-.032-4c0-3.893,0-4-.1-4.051C203.043-737.022,198.771-737.017,198.645-736.943Z" transform="translate(0 0)"/>
    </g>
    <g id="Scroll_Group_2" data-name="Scroll Group 2" transform="translate(9.004 12)" clip-path="url(#clip-path)" style="isolation: isolate">
      <g id="arrow-small-left" transform="translate(18.991 -5) rotate(90)" fill="#2fdc1c">
        <path d="M 11.58498001098633 18.49056053161621 C 11.18618011474609 18.49056053161621 10.81068992614746 18.33580017089844 10.52770042419434 18.05480003356934 L 6.236040115356445 13.75314044952393 C 5.768060207366943 13.28800964355469 5.506149768829346 12.66652011871338 5.500020027160645 12.00463008880615 L 5.499989986419678 12.00125980377197 L 5.5 11.99789047241211 C 5.502810001373291 11.33127975463867 5.764729976654053 10.70534992218018 6.237510204315186 10.23538970947266 L 10.52604007720947 5.936860084533691 C 10.81046009063721 5.654119968414307 11.18601989746094 5.499209880828857 11.58500003814697 5.499209880828857 C 11.98398017883301 5.499209880828857 12.35953998565674 5.654119968414307 12.64249992370605 5.935389995574951 C 12.92407989501953 6.214690208435059 13.08580017089844 6.602859973907471 13.08580017089844 7 C 13.08580017089844 7.397140026092529 12.92407989501953 7.7853102684021 12.64210987091064 8.064990043640137 L 10.20709991455078 10.5 L 19 10.5 C 19.82710075378418 10.5 20.5 11.17290019989014 20.5 12 C 20.5 12.82709980010986 19.82710075378418 13.5 19 13.5 L 10.20970439910889 13.5 L 12.64301013946533 15.92590999603271 C 13.2294397354126 16.50819969177246 13.2327995300293 17.46017074584961 12.64980030059814 18.04730033874512 C 12.36596965789795 18.33313941955566 11.9878101348877 18.49056053161621 11.58498001098633 18.49056053161621 Z" stroke="none"/>
        <path d="M 11.58500003814697 5.999210357666016 C 11.33001041412354 5.999210357666016 11.07501983642578 6.096139907836914 10.88000011444092 6.290000915527344 L 6.590000152587891 10.59000015258789 C 6.214410781860352 10.96335029602051 6.002229690551758 11.47041988372803 6 12 C 6.00486946105957 12.52610015869141 6.216840744018555 13.02910041809082 6.590000152587891 13.39999961853027 L 10.88000011444092 17.70000076293945 C 11.27212142944336 18.08935928344727 11.90564060211182 18.08712005615234 12.29500007629395 17.69499969482422 C 12.68435955047607 17.30287933349609 12.68212032318115 16.66936111450195 12.28999996185303 16.28000068664551 L 9 13 L 19 13 C 19.55228042602539 13 20 12.55228042602539 20 12 C 20 11.44771003723145 19.55228042602539 11 19 11 L 9 11 L 12.28999996185303 7.710000991821289 C 12.47931003570557 7.52223014831543 12.58580017089844 7.266639709472656 12.58580017089844 7 C 12.58580017089844 6.733360290527344 12.47931003570557 6.47776985168457 12.28999996185303 6.290000915527344 C 12.09498023986816 6.096139907836914 11.83998966217041 5.999210357666016 11.58500003814697 5.999210357666016 M 11.58500003814697 4.999210357666016 C 12.11697006225586 4.999210357666016 12.61771011352539 5.20574951171875 12.99499034881592 5.580789566040039 C 13.3701696395874 5.952909469604492 13.58580017089844 6.470479965209961 13.58580017089844 7 C 13.58580017089844 7.529520034790039 13.3701696395874 8.047089576721191 12.9942102432251 8.419989585876465 L 11.41420936584473 10 L 19 10 C 20.1028003692627 10 21 10.8971996307373 21 12 C 21 13.1028003692627 20.1028003692627 14 19 14 L 11.41941833496094 14 L 12.9960298538208 15.57182025909424 C 13.77737045288086 16.34766006469727 13.7818603515625 17.61684036254883 13.00459957122803 18.39961051940918 C 12.62621021270752 18.78068923950195 12.12203979492188 18.99056053161621 11.58498001098633 18.99056053161621 C 11.05327987670898 18.99056053161621 10.55268001556396 18.78424072265625 10.17539024353027 18.40958976745605 L 5.882070541381836 14.10628032684326 C 5.321689605712891 13.54930973052979 5.007400512695312 12.80352020263672 5.000040054321289 12.0092601776123 L 4.999980926513672 12.00251960754395 L 5.000009536743164 11.99579048156738 C 5.003379821777344 11.19585990905762 5.317680358886719 10.44472980499268 5.885009765625 9.880780220031738 L 10.17206954956055 5.583719253540039 C 10.55228996276855 5.20574951171875 11.05303001403809 4.999210357666016 11.58500003814697 4.999210357666016 Z" stroke="none" fill="#000"/>
      </g>
    </g>
  </g>
</svg>
