<svg xmlns="http://www.w3.org/2000/svg" xmlns:xlink="http://www.w3.org/1999/xlink" width="1596" height="1596" viewBox="0 0 1596 1596">
  <defs>
    <clipPath id="clip-vite">
      <rect width="1596" height="1596"/>
    </clipPath>
  </defs>
  <g id="vite" clip-path="url(#clip-vite)">
    <rect id="Rectangle_34" data-name="Rectangle 34" width="1596" height="1596" rx="228" fill="blue"/>
    <path id="logo" d="M1175.571,517.509,925.853,566.02,1136.74,423.788c68.99-58.359,73.354-163.215,9.456-227.113s-168.754-59.534-227.113,9.456L776.235,420.095l49.127-252.8C832.86,77.271,761.8,0,671.436,0S510.011,77.215,517.509,167.3l50.3,252.348L423.788,206.131c-58.359-68.99-163.215-73.354-227.113-9.456h0c-63.9,63.9-59.534,168.754,9.456,227.113L420.095,566.635,167.3,517.509C77.271,510.011,0,581.071,0,671.435H0C0,761.8,77.215,832.86,167.3,825.362L422.78,774.445,206.131,919.083c-68.99,58.359-73.354,163.215-9.456,227.113h0c63.9,63.9,168.754,59.534,227.113-9.456L567.81,923.223l-50.3,252.348c-7.5,90.029,63.563,167.3,153.927,167.3s161.424-77.215,153.927-167.3l-49.127-252.8L919.083,1136.74c58.359,68.99,163.215,73.354,227.113,9.456s59.534-168.754-9.456-227.113L923.223,775.06l252.348,50.3c90.028,7.5,167.3-63.563,167.3-153.927h0c0-90.364-77.215-161.424-167.3-153.927ZM671.435,811.318A139.882,139.882,0,1,1,811.318,671.435,139.862,139.862,0,0,1,671.435,811.318Z" transform="translate(127 127)" fill="#fff"/>
  </g>
</svg>
