<svg xmlns="http://www.w3.org/2000/svg" xmlns:xlink="http://www.w3.org/1999/xlink" width="761" height="761" viewBox="0 0 761 761">
  <defs>
    <linearGradient id="linear-gradient" x1="1" x2="0" y2="1" gradientUnits="objectBoundingBox">
      <stop offset="0" stop-color="#208f00"/>
      <stop offset="1" stop-color="#135b00"/>
    </linearGradient>
    <clipPath id="clip-path">
      <rect y="100" width="660.41" height="441.619" fill="none"/>
    </clipPath>
    <linearGradient id="linear-gradient-2" x1="1.325" y1="-0.507" x2="-1.814" y2="2.137" gradientUnits="objectBoundingBox">
      <stop offset="0" stop-color="#1f8d00"/>
      <stop offset="1" stop-color="#135c00"/>
    </linearGradient>
    <clipPath id="clip-vite">
      <rect width="761" height="761"/>
    </clipPath>
  </defs>
  <g id="vite" clip-path="url(#clip-vite)">
    <rect width="761" height="761" fill="url(#linear-gradient)"/>
    <g id="Scroll_Group_2" data-name="Scroll Group 2" transform="translate(50.295 59.69)" clip-path="url(#clip-path)" style="isolation: isolate">
      <g id="Group_5" data-name="Group 5" transform="translate(-42.903 -25.705)">
        <g id="logo" transform="translate(42.902 124.995)">
          <path id="Path_1" data-name="Path 1" d="M462.694-735.615c-2.143,1.137-2.269,7.186-2.269,96.91,0,52.676-.378,95.773-.755,95.773s-31-30.244-68.051-67.168c-37.049-36.8-67.8-67.166-68.3-67.42-.5-.125-18.651,17.393-40.326,39.064L243.546-599.01l68.555,68.3c37.554,37.68,68.051,68.43,67.672,68.43-.378.123-43.1.123-95.144,0-51.92,0-95.271.5-96.154,1.008-1.134.883-1.512,12.98-1.26,56.455l.378,55.322,100.186.758c92.75.754,105.6,1.133,109.007,3.656a22.365,22.365,0,0,0,5.04,1.762c4.411,1.008,11.846,4.537,14.241,6.68a5.761,5.761,0,0,0,2.9,1.641c3.781,0,24.069,21.045,29.992,31.125l5.419,9.2H579.892l5.419-9.2a105.212,105.212,0,0,1,15-18.527c11.341-11.088,12.6-11.971,16.13-13.1,1.513-.5,2.772-1.389,2.772-2.016s1.764-1.389,3.781-1.895c2.142-.5,3.78-1.256,3.78-1.889,0-.5,2.143-1.385,4.789-1.891,2.521-.5,5.293-1.26,5.924-1.887,3.15-2.4,16.255-2.9,109.636-3.656l99.556-.758.378-55.322c.252-43.475-.126-55.572-1.26-56.455-.883-.5-44.108-1.008-96.153-1.008-51.92.123-94.767.123-95.145,0-.378,0,30.118-30.75,67.672-68.43l68.555-68.3L751.4-638.455c-21.675-21.672-39.821-39.189-40.452-39.064-.5.254-31.253,30.623-68.3,67.42-37.05,36.924-67.673,67.168-68.051,67.168s-.755-43.1-.755-95.773c0-93.254,0-95.773-2.394-97.033C568.046-737.5,465.718-737.379,462.694-735.615Z" transform="translate(-187.14 737.002)" fill="#fff"/>
        </g>
        <rect id="Rectangle_34" data-name="Rectangle 34" width="240.522" height="286.426" transform="translate(429.927 113.019)" fill="url(#linear-gradient-2)"/>
        <g id="arrow-small-left" transform="translate(790 258.757) rotate(135)" fill="#fff">
          <path d="M 146.0524139404297 317.5848999023438 C 142.1545104980469 317.5848999023438 138.3524627685547 316.8482055664062 134.7519073486328 315.3952941894531 C 131.0221099853516 313.8902587890625 127.6731643676758 311.6795959472656 124.7981109619141 308.8247375488281 L 124.7914123535156 308.8181457519531 L 124.7848129272461 308.8114929199219 L 12.597412109375 196.362548828125 C 10.0013256072998 193.7809295654297 7.647236347198486 190.931396484375 5.601711750030518 187.8942413330078 C 3.572411775588989 184.8811950683594 1.828011751174927 181.6556549072266 0.4168617427349091 178.3072509765625 C -0.9942382574081421 174.9588470458984 -2.084638357162476 171.4577026367188 -2.823988199234009 167.9010467529297 C -3.570238351821899 164.3112945556641 -3.965838193893433 160.6312561035156 -3.999788284301758 156.9631500244141 L -4.000038146972656 156.9362487792969 L -3.999888181686401 156.9093017578125 C -3.984338283538818 153.2171936035156 -3.602538347244263 149.5117492675781 -2.865088224411011 145.8958435058594 C -2.134488344192505 142.3137512207031 -1.048338294029236 138.7870483398438 0.3632117509841919 135.4136505126953 C 1.774811744689941 132.0402984619141 3.524011850357056 128.7910003662109 5.562261581420898 125.7560501098633 C 7.617024898529053 122.6965255737305 9.984261512756348 119.8270416259766 12.59882068634033 117.2267837524414 L 124.7847595214844 4.779398918151855 L 124.7906112670898 4.773548603057861 L 124.7964630126953 4.767698764801025 C 127.6701583862305 1.911048769950867 131.0185546875 -0.301251232624054 134.7485656738281 -1.807751297950745 C 138.3502044677734 -3.262401342391968 142.1535186767578 -3.999951362609863 146.0528564453125 -3.999951362609863 C 149.9522094726562 -3.999951362609863 153.7555084228516 -3.262401342391968 157.3571624755859 -1.807751297950745 C 161.087158203125 -0.301251232624054 164.4355621337891 1.911048769950867 167.3092651367188 4.767698764801025 C 170.1467132568359 7.581998825073242 172.3672180175781 10.88314914703369 173.9058685302734 14.57634830474854 C 175.4445190429688 18.2695484161377 176.2246551513672 22.17074966430664 176.2246551513672 26.1716480255127 C 176.2246551513672 30.17254829406738 175.4445190429688 34.07379913330078 173.9058685302734 37.76699829101562 C 172.3692779541016 41.45523834228516 170.1528778076172 44.75227737426758 167.3177032470703 47.56719207763672 L 167.3177185058594 47.56719970703125 L 88.10965728759766 126.7752532958984 L 339.9619140625 126.7753524780273 C 344.0304565429688 126.7753524780273 347.9794616699219 127.5730972290039 351.69921875 129.1463928222656 C 355.2900085449219 130.6651916503906 358.5140686035156 132.8385925292969 361.2817687988281 135.6063537597656 C 364.0494995117188 138.3740539550781 366.2229614257812 141.5980987548828 367.7417602539062 145.1889038085938 C 369.3150634765625 148.9086456298828 370.1128234863281 152.8576507568359 370.1128234863281 156.9261932373047 C 370.1128234863281 160.9947967529297 369.3150634765625 164.9438018798828 367.7417602539062 168.6634979248047 C 366.2229614257812 172.2543487548828 364.0494995117188 175.4783935546875 361.2817993164062 178.24609375 C 358.5140686035156 181.0137939453125 355.2900085449219 183.187255859375 351.69921875 184.7060546875 C 347.9794616699219 186.2793426513672 344.0304565429688 187.0771026611328 339.9619140625 187.0771026611328 L 88.13048553466797 187.0770568847656 L 167.3133544921875 266.0193481445312 C 170.1990509033203 268.88623046875 172.4384460449219 272.2345581054688 173.9691162109375 275.9712524414062 C 175.4477691650391 279.5808410644531 176.2044677734375 283.3966979980469 176.2183074951172 287.3127136230469 C 176.2321624755859 291.228759765625 175.5024108886719 295.0498046875 174.04931640625 298.6697387695312 C 172.5440673828125 302.4196472167969 170.3265686035156 305.7855834960938 167.4584045410156 308.6740417480469 C 164.5770111083984 311.5759582519531 161.2098541259766 313.8240966796875 157.4505615234375 315.3561401367188 C 153.8215179443359 316.8350524902344 149.9866180419922 317.5848999023438 146.0524139404297 317.5848999023438 Z" stroke="none"/>
          <path d="M 146.0528564453125 0 C 139.3846282958984 0 132.7163848876953 2.53485107421875 127.6164703369141 7.604522705078125 L 15.42910766601562 120.0533752441406 C 5.607147216796875 129.8168029785156 0.058349609375 143.0772247314453 3.0517578125e-05 156.9261627197266 C 0.1273193359375 170.6842193603516 5.67071533203125 183.8381195068359 15.42910766601562 193.5374298095703 L 127.6164703369141 305.9863891601562 C 137.8708190917969 316.1685180664062 154.4378967285156 316.1101379394531 164.6200408935547 305.8556518554688 C 174.8021545410156 295.601318359375 174.7436218261719 279.0342712402344 164.4892578125 268.85205078125 L 78.45278930664062 183.0770568847656 L 339.9618835449219 183.0771179199219 C 354.4045715332031 183.0771179199219 366.11279296875 171.368896484375 366.11279296875 156.9262237548828 C 366.11279296875 142.4834747314453 354.4045715332031 130.7753295898438 339.9618835449219 130.7753295898438 L 78.45278930664062 130.7752685546875 L 164.4892578125 44.73873901367188 C 169.43994140625 39.82852172851562 172.2246704101562 33.14447021484375 172.2246704101562 26.171630859375 C 172.2246704101562 19.1988525390625 169.43994140625 12.51473999023438 164.4892578125 7.604522705078125 C 159.3893280029297 2.53485107421875 152.7210998535156 0 146.0528564453125 0 M 146.0528259277344 -8 C 155.1365203857422 -8 163.6869964599609 -4.47314453125 170.1292572021484 1.93084716796875 C 176.5426788330078 8.291900634765625 180.2246704101562 17.129638671875 180.2246704101562 26.171630859375 C 180.2246704101562 35.213623046875 176.5426788330078 44.05136108398438 170.1228332519531 50.41873168945312 L 97.76644897460938 122.7752685546875 L 339.9618835449219 122.7753295898438 C 358.792724609375 122.7753295898438 374.11279296875 138.0953826904297 374.11279296875 156.9262237548828 C 374.11279296875 175.7570648193359 358.792724609375 191.0771179199219 339.9618835449219 191.0771179199219 L 97.80816650390625 191.0770568847656 L 170.1375122070312 263.1865844726562 C 183.4942474365234 276.4493103027344 183.5708312988281 298.1243286132812 170.2968292236328 311.4924926757812 C 163.8345184326172 318.0007019042969 155.224365234375 321.5848999023438 146.0523529052734 321.5848999023438 C 136.9723052978516 321.5848999023438 128.4231414794922 318.0613098144531 121.9796295166016 311.6631774902344 L 9.76568603515625 199.1876831054688 C -1.534332275390625 187.9561614990234 -7.851959228515625 172.9652709960938 -7.999603271484375 157.0001678466797 C -7.932159423828125 140.8134307861328 -1.614593505859375 125.7154235839844 9.789154052734375 114.379638671875 L 121.9530487060547 1.95428466796875 C 128.4186248779297 -4.47314453125 136.9691467285156 -8 146.0528259277344 -8 Z" stroke="none" fill="#fff"/>
        </g>
      </g>
    </g>
  </g>
</svg>
