<svg xmlns="http://www.w3.org/2000/svg" xmlns:xlink="http://www.w3.org/1999/xlink" width="761" height="761" viewBox="0 0 761 761">
  <defs>
    <linearGradient id="linear-gradient" x1="1" x2="-0.284" y2="1.321" gradientUnits="objectBoundingBox">
      <stop offset="0"/>
      <stop offset="1" stop-color="#1a7a00"/>
    </linearGradient>
    <clipPath id="clip-vite">
      <rect width="761" height="761"/>
    </clipPath>
  </defs>
  <g id="vite" clip-path="url(#clip-vite)">
    <rect width="761" height="761" fill="url(#linear-gradient)"/>
    <path id="arrow-trend-up_1_" data-name="arrow-trend-up (1)" d="M524.28,41.235a38.266,38.266,0,0,0-9.32-9.395c-3.673-2.573-91.347-62.164-221.471,4.972a37.485,37.485,0,1,0,34.355,66.636C365.7,83.91,397.079,79.212,420.965,80.137L296.338,195.045a32.363,32.363,0,0,1-22.687,8.47A30.744,30.744,0,0,1,252.014,193.3a105.925,105.925,0,0,0-150.962-6.221,33.814,33.814,0,0,0-2.923,3.073l-87.9,102.79c-13.467,15.716-12.293,40.227,4.123,52.844,23.561,18.089,45.423,4.547,52.819-4.148l86.25-100.866a30.946,30.946,0,0,1,43.025,2.9,105.932,105.932,0,0,0,150.812,6.371l128.15-118.181c1.6,24.611-2.449,57.591-22.912,97.893a37.436,37.436,0,0,0,16.44,50.4c24.261,12.168,43.8-3.423,50.421-16.44,66.386-130.774,7.471-218.747,4.922-222.42Z" transform="translate(105.003 200.997)" fill="#fff" style="mix-blend-mode: difference;isolation: isolate"/>
  </g>
</svg>
