<svg xmlns="http://www.w3.org/2000/svg" width="115.129" height="77.161" viewBox="0 0 115.129 77.161">
  <g id="logo" transform="translate(-187.141 737.001)" opacity="0.85">
    <path id="Path_1" data-name="Path 1" d="M235.209-736.759c-.374.2-.4,1.253-.4,16.905,0,9.189-.066,16.707-.132,16.707s-5.408-5.276-11.871-11.717c-6.463-6.419-11.827-11.717-11.915-11.761-.088-.022-3.253,3.034-7.035,6.815l-6.881,6.881,11.959,11.915c6.551,6.573,11.871,11.937,11.8,11.937-.066.022-7.518.022-16.6,0-9.057,0-16.619.088-16.773.176-.2.154-.264,2.264-.22,9.848l.066,9.651,17.477.132c16.18.132,18.422.2,19.015.638a3.887,3.887,0,0,0,.879.308,7.669,7.669,0,0,1,2.484,1.165,1,1,0,0,0,.506.286c.659,0,4.2,3.671,5.232,5.43l.945,1.6h21.9l.945-1.6a18.35,18.35,0,0,1,2.616-3.232c1.978-1.935,2.2-2.088,2.814-2.286.264-.088.484-.242.484-.352s.308-.242.66-.33c.374-.088.659-.22.659-.33,0-.088.374-.242.835-.33a3.113,3.113,0,0,0,1.033-.33c.55-.418,2.836-.506,19.125-.638l17.367-.132.066-9.651c.044-7.584-.022-9.695-.22-9.848-.154-.088-7.694-.176-16.773-.176-9.057.022-16.531.022-16.6,0-.066,0,5.254-5.364,11.8-11.937l11.959-11.915-6.859-6.881c-3.781-3.781-6.947-6.837-7.057-6.815-.088.044-5.452,5.342-11.915,11.761-6.463,6.441-11.8,11.717-11.871,11.717s-.132-7.518-.132-16.707c0-16.268,0-16.707-.418-16.927C253.587-737.089,235.736-737.067,235.209-736.759Z" fill="#fff"/>
  </g>
</svg>
