<svg xmlns="http://www.w3.org/2000/svg" xmlns:xlink="http://www.w3.org/1999/xlink" width="1254" height="1254" viewBox="0 0 1254 1254">
  <defs>
    <clipPath id="clip-vite">
      <rect width="1254" height="1254"/>
    </clipPath>
  </defs>
  <g id="vite" clip-path="url(#clip-vite)">
    <rect id="Rectangle_34" data-name="Rectangle 34" width="1254" height="1254" rx="352" fill="#1da1f2"/>
    <path id="logo" d="M923.43,406.511,727.272,444.617,892.927,332.892A121.316,121.316,0,1,0,721.954,161.919L609.745,329.991l38.59-198.575a121.332,121.332,0,1,0-241.823,0l39.513,198.223L332.892,161.919a121.309,121.309,0,0,0-178.4-7.428h0a121.309,121.309,0,0,0,7.428,178.4L329.991,445.1l-198.575-38.59A121.353,121.353,0,0,0,0,527.423H0A121.329,121.329,0,0,0,131.416,648.334l200.684-40L161.919,721.954a121.309,121.309,0,0,0-7.428,178.4h0a121.309,121.309,0,0,0,178.4-7.428L446.024,725.206,406.511,923.429a121.332,121.332,0,1,0,241.823,0l-38.59-198.575L721.954,892.927A121.316,121.316,0,1,0,892.927,721.954L725.206,608.822,923.43,648.335a121.353,121.353,0,0,0,131.416-120.912h0A121.329,121.329,0,0,0,923.43,406.511ZM527.423,637.3A109.88,109.88,0,1,1,637.3,527.423,109.864,109.864,0,0,1,527.423,637.3Z" transform="translate(99.76 99.76)" fill="#f5f8fa"/>
  </g>
</svg>
